<svg width="63" height="57" viewBox="0 0 63 57" fill="none" xmlns="http://www.w3.org/2000/svg">
<path d="M10 18.7692H11.001C10.6471 19.3111 10.3131 19.8671 10 20.4359V18.7692ZM10 47V45.3333C10.3131 45.9022 10.647 46.4581 11.001 47H10ZM51.999 47C52.3529 46.4581 52.6869 45.9021 53 45.3333V47H51.999ZM53 20.4359C52.6869 19.8671 52.3529 19.3111 51.999 18.7692H53V20.4359ZM31.8631 32.8271C31.9068 32.8465 31.9418 32.8664 31.9691 32.8846C31.9418 32.9028 31.9068 32.9228 31.8631 32.9421C31.7534 32.9906 31.6225 33.0192 31.5 33.0192C31.3775 33.0192 31.2466 32.9906 31.1369 32.9421C31.0932 32.9228 31.0582 32.9028 31.0309 32.8846C31.0582 32.8664 31.0932 32.8465 31.1369 32.8271C31.2466 32.7787 31.3775 32.75 31.5 32.75C31.6225 32.75 31.7533 32.7787 31.8631 32.8271Z" fill="white" stroke="white" stroke-width="20"/>
</svg>
