<svg width="67" height="67" viewBox="0 0 67 67" fill="none" xmlns="http://www.w3.org/2000/svg">
<path d="M33 32C37.3961 32 41.2022 30.4233 44.313 27.3124C47.4228 24.202 49 20.3962 49 15.9995C49 11.6043 47.4233 7.79803 44.3125 4.68662C41.2017 1.57674 37.3956 0 33 0C28.6034 0 24.7978 1.57674 21.6875 4.68713C18.5772 7.79752 17 11.6038 17 15.9995C17 20.3962 18.5772 24.2025 21.6875 27.3129C24.7988 30.4228 28.6049 32 33 32ZM24.4405 7.4397C26.8271 5.05306 29.6267 3.89293 33 3.89293C36.3728 3.89293 39.1729 5.05306 41.56 7.4397C43.9466 9.82686 45.1072 12.6271 45.1072 15.9995C45.1072 19.3729 43.9466 22.1726 41.56 24.5598C39.1729 26.9469 36.3728 28.1071 33 28.1071C29.6277 28.1071 26.8281 26.9464 24.4405 24.5598C22.0534 22.1731 20.8928 19.3729 20.8928 15.9995C20.8928 12.6271 22.0534 9.82686 24.4405 7.4397Z" fill="#8A8A8A"/>
<path d="M60.8643 51.3572C60.7737 50.038 60.5903 48.5989 60.3204 47.0793C60.048 45.5482 59.6972 44.1009 59.2773 42.7781C58.843 41.4108 58.2536 40.0606 57.5239 38.7666C56.7675 37.4236 55.8785 36.2542 54.8809 35.2919C53.8378 34.2852 52.5606 33.4757 51.0837 32.8853C49.612 32.298 47.9809 32.0005 46.2362 32.0005C45.551 32.0005 44.8884 32.2841 43.6086 33.1245C42.821 33.6426 41.8998 34.2418 40.8715 34.9045C39.9922 35.4696 38.801 35.999 37.3298 36.4784C35.8944 36.9469 34.4369 37.1845 32.998 37.1845C31.56 37.1845 30.1025 36.9469 28.6661 36.4784C27.1964 35.9995 26.0047 35.4701 25.127 34.905C24.1084 34.2485 23.1867 33.6493 22.3873 33.124C21.1086 32.2836 20.4459 32 19.7607 32C18.0155 32 16.385 32.298 14.9137 32.8859C13.4378 33.4752 12.1602 34.2846 11.116 35.2924C10.1184 36.2552 9.22942 37.4241 8.47356 38.7666C7.74485 40.0606 7.15491 41.4103 6.72065 42.7786C6.30124 44.1014 5.95045 45.5482 5.67802 47.0793C5.40763 48.5968 5.22481 50.0364 5.13417 51.3588C5.04506 52.6516 5 53.9972 5 55.3567C5 58.8909 6.11381 61.752 8.3102 63.862C10.4795 65.9442 13.3493 67 16.8402 67H49.1598C52.6497 67 55.5195 65.9442 57.6893 63.862C59.8862 61.7535 61 58.8914 61 55.3562C60.9995 53.9921 60.9539 52.6465 60.8643 51.3572ZM54.9772 60.9875C53.5438 62.3636 51.6409 63.0325 49.1593 63.0325H16.8402C14.3581 63.0325 12.4551 62.3636 11.0223 60.988C9.61657 59.6383 8.93343 57.7958 8.93343 55.3567C8.93343 54.0881 8.97491 52.8355 9.05787 51.633C9.13878 50.4533 9.30419 49.1573 9.54948 47.7802C9.7917 46.4202 10.1 45.1438 10.4666 43.9883C10.8185 42.8803 11.2983 41.7832 11.8934 40.7264C12.4613 39.7191 13.1147 38.855 13.8357 38.1587C14.5102 37.5073 15.3603 36.9742 16.3619 36.5744C17.2883 36.2046 18.3294 36.0021 19.4596 35.9716C19.5974 36.0455 19.8427 36.1865 20.24 36.4479C21.0486 36.9794 21.9807 37.5858 23.011 38.2496C24.1724 38.9965 25.6688 39.6711 27.4565 40.2532C29.2842 40.8493 31.1483 41.152 32.9985 41.152C34.8487 41.152 36.7132 40.8493 38.5399 40.2537C40.3292 39.6706 41.825 38.9965 42.988 38.2485C44.0424 37.5688 44.9483 36.9799 45.7569 36.4479C46.1543 36.187 46.3996 36.0455 46.5373 35.9716C47.668 36.0021 48.7091 36.2046 49.636 36.5744C50.6372 36.9742 51.4873 37.5078 52.1617 38.1587C52.8827 38.8544 53.5362 39.7186 54.1041 40.7269C54.6997 41.7832 55.18 42.8808 55.5313 43.9878C55.8985 45.1448 56.2073 46.4207 56.449 47.7797C56.6938 49.1593 56.8597 50.4559 56.9406 51.6336V51.6346C57.0241 52.8324 57.0661 54.0845 57.0666 55.3567C57.0661 57.7964 56.3829 59.6383 54.9772 60.9875Z" fill="#8A8A8A"/>
</svg>
